<?xml version="1.0" encoding="UTF-8" standalone="no"?>
<!DOCTYPE svg PUBLIC "-//W3C//DTD SVG 1.1//EN"
 "http://www.w3.org/Graphics/SVG/1.1/DTD/svg11.dtd">
<!-- Generated by graphviz version 14.0.0 (20250921.2048)
 -->
<!-- Title: mnist_cnn Pages: 1 -->
<svg width="1040pt" height="83pt"
 viewBox="0.00 0.00 1040.00 83.00" xmlns="http://www.w3.org/2000/svg" xmlns:xlink="http://www.w3.org/1999/xlink">
<g id="graph0" class="graph" transform="scale(1 1) rotate(0) translate(4 78.8)">
<title>mnist_cnn</title>
<polygon fill="white" stroke="none" points="-4,4 -4,-78.8 1035.59,-78.8 1035.59,4 -4,4"/>
<text xml:space="preserve" text-anchor="middle" x="515.79" y="-7.9" font-family="Helvetica,sans-Serif" font-size="13.00">MNIST 2D CNN (S4TF&#45;style) — 1,676,458 params</text>
<!-- input -->
<g id="node1" class="node">
<title>input</title>
<ellipse fill="#e8f0ff" stroke="#4060a0" cx="36.08" cy="-49.2" rx="36.08" ry="20.93"/>
<text xml:space="preserve" text-anchor="middle" x="36.08" y="-51.9" font-family="Helvetica,sans-Serif" font-size="9.00">Input</text>
<text xml:space="preserve" text-anchor="middle" x="36.08" y="-41.1" font-family="Helvetica,sans-Serif" font-size="9.00">28×28×1</text>
</g>
<!-- c1 -->
<g id="node2" class="node">
<title>c1</title>
<path fill="#fff0e8" stroke="#c07040" d="M151.69,-74.8C151.69,-74.8 120.17,-74.8 120.17,-74.8 114.17,-74.8 108.17,-68.8 108.17,-62.8 108.17,-62.8 108.17,-35.6 108.17,-35.6 108.17,-29.6 114.17,-23.6 120.17,-23.6 120.17,-23.6 151.69,-23.6 151.69,-23.6 157.69,-23.6 163.69,-29.6 163.69,-35.6 163.69,-35.6 163.69,-62.8 163.69,-62.8 163.69,-68.8 157.69,-74.8 151.69,-74.8"/>
<text xml:space="preserve" text-anchor="middle" x="135.93" y="-62.7" font-family="Helvetica,sans-Serif" font-size="9.00">convBn</text>
<text xml:space="preserve" text-anchor="middle" x="135.93" y="-51.9" font-family="Helvetica,sans-Serif" font-size="9.00">1 → 32 ch</text>
<text xml:space="preserve" text-anchor="middle" x="135.93" y="-41.1" font-family="Helvetica,sans-Serif" font-size="9.00">3×3</text>
<text xml:space="preserve" text-anchor="middle" x="135.93" y="-30.3" font-family="Helvetica,sans-Serif" font-size="9.00">384 p</text>
</g>
<!-- input&#45;&gt;c1 -->
<g id="edge1" class="edge">
<title>input&#45;&gt;c1</title>
<path fill="none" stroke="#888888" stroke-width="0.8" d="M72.41,-49.2C81.65,-49.2 91.6,-49.2 100.78,-49.2"/>
<polygon fill="#888888" stroke="#888888" stroke-width="0.8" points="100.74,-51.3 106.74,-49.2 100.74,-47.1 100.74,-51.3"/>
</g>
<!-- c2 -->
<g id="node3" class="node">
<title>c2</title>
<path fill="#fff0e8" stroke="#c07040" d="M248.22,-74.8C248.22,-74.8 211.69,-74.8 211.69,-74.8 205.69,-74.8 199.69,-68.8 199.69,-62.8 199.69,-62.8 199.69,-35.6 199.69,-35.6 199.69,-29.6 205.69,-23.6 211.69,-23.6 211.69,-23.6 248.22,-23.6 248.22,-23.6 254.22,-23.6 260.22,-29.6 260.22,-35.6 260.22,-35.6 260.22,-62.8 260.22,-62.8 260.22,-68.8 254.22,-74.8 248.22,-74.8"/>
<text xml:space="preserve" text-anchor="middle" x="229.95" y="-62.7" font-family="Helvetica,sans-Serif" font-size="9.00">convBn</text>
<text xml:space="preserve" text-anchor="middle" x="229.95" y="-51.9" font-family="Helvetica,sans-Serif" font-size="9.00">32 → 32 ch</text>
<text xml:space="preserve" text-anchor="middle" x="229.95" y="-41.1" font-family="Helvetica,sans-Serif" font-size="9.00">3×3</text>
<text xml:space="preserve" text-anchor="middle" x="229.95" y="-30.3" font-family="Helvetica,sans-Serif" font-size="9.00">9,312 p</text>
</g>
<!-- c1&#45;&gt;c2 -->
<g id="edge2" class="edge">
<title>c1&#45;&gt;c2</title>
<path fill="none" stroke="#888888" stroke-width="0.8" d="M164.04,-49.2C172.91,-49.2 182.92,-49.2 192.37,-49.2"/>
<polygon fill="#888888" stroke="#888888" stroke-width="0.8" points="192.25,-51.3 198.25,-49.2 192.25,-47.1 192.25,-51.3"/>
</g>
<!-- p1 -->
<g id="node4" class="node">
<title>p1</title>
<path fill="#e8f0ff" stroke="#4060a0" d="M338.22,-69.4C338.22,-69.4 308.22,-69.4 308.22,-69.4 302.22,-69.4 296.22,-63.4 296.22,-57.4 296.22,-57.4 296.22,-41 296.22,-41 296.22,-35 302.22,-29 308.22,-29 308.22,-29 338.22,-29 338.22,-29 344.22,-29 350.22,-35 350.22,-41 350.22,-41 350.22,-57.4 350.22,-57.4 350.22,-63.4 344.22,-69.4 338.22,-69.4"/>
<text xml:space="preserve" text-anchor="middle" x="323.22" y="-57.3" font-family="Helvetica,sans-Serif" font-size="9.00">maxPool</text>
<text xml:space="preserve" text-anchor="middle" x="323.22" y="-46.5" font-family="Helvetica,sans-Serif" font-size="9.00">2×2</text>
<text xml:space="preserve" text-anchor="middle" x="323.22" y="-35.7" font-family="Helvetica,sans-Serif" font-size="9.00">28→14</text>
</g>
<!-- c2&#45;&gt;p1 -->
<g id="edge3" class="edge">
<title>c2&#45;&gt;p1</title>
<path fill="none" stroke="#888888" stroke-width="0.8" d="M260.59,-49.2C269.54,-49.2 279.43,-49.2 288.63,-49.2"/>
<polygon fill="#888888" stroke="#888888" stroke-width="0.8" points="288.6,-51.3 294.6,-49.2 288.6,-47.1 288.6,-51.3"/>
</g>
<!-- c3 -->
<g id="node5" class="node">
<title>c3</title>
<path fill="#fff0e8" stroke="#c07040" d="M434.75,-74.8C434.75,-74.8 398.22,-74.8 398.22,-74.8 392.22,-74.8 386.22,-68.8 386.22,-62.8 386.22,-62.8 386.22,-35.6 386.22,-35.6 386.22,-29.6 392.22,-23.6 398.22,-23.6 398.22,-23.6 434.75,-23.6 434.75,-23.6 440.75,-23.6 446.75,-29.6 446.75,-35.6 446.75,-35.6 446.75,-62.8 446.75,-62.8 446.75,-68.8 440.75,-74.8 434.75,-74.8"/>
<text xml:space="preserve" text-anchor="middle" x="416.48" y="-62.7" font-family="Helvetica,sans-Serif" font-size="9.00">convBn</text>
<text xml:space="preserve" text-anchor="middle" x="416.48" y="-51.9" font-family="Helvetica,sans-Serif" font-size="9.00">32 → 64 ch</text>
<text xml:space="preserve" text-anchor="middle" x="416.48" y="-41.1" font-family="Helvetica,sans-Serif" font-size="9.00">3×3</text>
<text xml:space="preserve" text-anchor="middle" x="416.48" y="-30.3" font-family="Helvetica,sans-Serif" font-size="9.00">18,624 p</text>
</g>
<!-- p1&#45;&gt;c3 -->
<g id="edge4" class="edge">
<title>p1&#45;&gt;c3</title>
<path fill="none" stroke="#888888" stroke-width="0.8" d="M350.62,-49.2C359.43,-49.2 369.41,-49.2 378.85,-49.2"/>
<polygon fill="#888888" stroke="#888888" stroke-width="0.8" points="378.73,-51.3 384.73,-49.2 378.73,-47.1 378.73,-51.3"/>
</g>
<!-- c4 -->
<g id="node6" class="node">
<title>c4</title>
<path fill="#fff0e8" stroke="#c07040" d="M531.28,-74.8C531.28,-74.8 494.75,-74.8 494.75,-74.8 488.75,-74.8 482.75,-68.8 482.75,-62.8 482.75,-62.8 482.75,-35.6 482.75,-35.6 482.75,-29.6 488.75,-23.6 494.75,-23.6 494.75,-23.6 531.28,-23.6 531.28,-23.6 537.28,-23.6 543.28,-29.6 543.28,-35.6 543.28,-35.6 543.28,-62.8 543.28,-62.8 543.28,-68.8 537.28,-74.8 531.28,-74.8"/>
<text xml:space="preserve" text-anchor="middle" x="513.01" y="-62.7" font-family="Helvetica,sans-Serif" font-size="9.00">convBn</text>
<text xml:space="preserve" text-anchor="middle" x="513.01" y="-51.9" font-family="Helvetica,sans-Serif" font-size="9.00">64 → 64 ch</text>
<text xml:space="preserve" text-anchor="middle" x="513.01" y="-41.1" font-family="Helvetica,sans-Serif" font-size="9.00">3×3</text>
<text xml:space="preserve" text-anchor="middle" x="513.01" y="-30.3" font-family="Helvetica,sans-Serif" font-size="9.00">37,056 p</text>
</g>
<!-- c3&#45;&gt;c4 -->
<g id="edge5" class="edge">
<title>c3&#45;&gt;c4</title>
<path fill="none" stroke="#888888" stroke-width="0.8" d="M447.14,-49.2C456.11,-49.2 466.07,-49.2 475.44,-49.2"/>
<polygon fill="#888888" stroke="#888888" stroke-width="0.8" points="475.26,-51.3 481.26,-49.2 475.26,-47.1 475.26,-51.3"/>
</g>
<!-- p2 -->
<g id="node7" class="node">
<title>p2</title>
<path fill="#e8f0ff" stroke="#4060a0" d="M621.28,-69.4C621.28,-69.4 591.28,-69.4 591.28,-69.4 585.28,-69.4 579.28,-63.4 579.28,-57.4 579.28,-57.4 579.28,-41 579.28,-41 579.28,-35 585.28,-29 591.28,-29 591.28,-29 621.28,-29 621.28,-29 627.28,-29 633.28,-35 633.28,-41 633.28,-41 633.28,-57.4 633.28,-57.4 633.28,-63.4 627.28,-69.4 621.28,-69.4"/>
<text xml:space="preserve" text-anchor="middle" x="606.28" y="-57.3" font-family="Helvetica,sans-Serif" font-size="9.00">maxPool</text>
<text xml:space="preserve" text-anchor="middle" x="606.28" y="-46.5" font-family="Helvetica,sans-Serif" font-size="9.00">2×2</text>
<text xml:space="preserve" text-anchor="middle" x="606.28" y="-35.7" font-family="Helvetica,sans-Serif" font-size="9.00">14→7</text>
</g>
<!-- c4&#45;&gt;p2 -->
<g id="edge6" class="edge">
<title>c4&#45;&gt;p2</title>
<path fill="none" stroke="#888888" stroke-width="0.8" d="M543.65,-49.2C552.6,-49.2 562.49,-49.2 571.69,-49.2"/>
<polygon fill="#888888" stroke="#888888" stroke-width="0.8" points="571.66,-51.3 577.66,-49.2 571.66,-47.1 571.66,-51.3"/>
</g>
<!-- fl -->
<g id="node8" class="node">
<title>fl</title>
<path fill="#f0e8ff" stroke="#6040a0" d="M711.28,-69.4C711.28,-69.4 681.28,-69.4 681.28,-69.4 675.28,-69.4 669.28,-63.4 669.28,-57.4 669.28,-57.4 669.28,-41 669.28,-41 669.28,-35 675.28,-29 681.28,-29 681.28,-29 711.28,-29 711.28,-29 717.28,-29 723.28,-35 723.28,-41 723.28,-41 723.28,-57.4 723.28,-57.4 723.28,-63.4 717.28,-69.4 711.28,-69.4"/>
<text xml:space="preserve" text-anchor="middle" x="696.28" y="-57.3" font-family="Helvetica,sans-Serif" font-size="9.00">flatten</text>
<text xml:space="preserve" text-anchor="middle" x="696.28" y="-46.5" font-family="Helvetica,sans-Serif" font-size="9.00">7×7×64</text>
<text xml:space="preserve" text-anchor="middle" x="696.28" y="-35.7" font-family="Helvetica,sans-Serif" font-size="9.00">→ 3136</text>
</g>
<!-- p2&#45;&gt;fl -->
<g id="edge7" class="edge">
<title>p2&#45;&gt;fl</title>
<path fill="none" stroke="#888888" stroke-width="0.8" d="M633.68,-49.2C642.56,-49.2 652.58,-49.2 661.92,-49.2"/>
<polygon fill="#888888" stroke="#888888" stroke-width="0.8" points="661.68,-51.3 667.68,-49.2 661.68,-47.1 661.68,-51.3"/>
</g>
<!-- d1 -->
<g id="node9" class="node">
<title>d1</title>
<path fill="#ffe8e8" stroke="#c04040" d="M810.82,-74.8C810.82,-74.8 771.28,-74.8 771.28,-74.8 765.28,-74.8 759.28,-68.8 759.28,-62.8 759.28,-62.8 759.28,-35.6 759.28,-35.6 759.28,-29.6 765.28,-23.6 771.28,-23.6 771.28,-23.6 810.82,-23.6 810.82,-23.6 816.82,-23.6 822.82,-29.6 822.82,-35.6 822.82,-35.6 822.82,-62.8 822.82,-62.8 822.82,-68.8 816.82,-74.8 810.82,-74.8"/>
<text xml:space="preserve" text-anchor="middle" x="791.05" y="-62.7" font-family="Helvetica,sans-Serif" font-size="9.00">Dense</text>
<text xml:space="preserve" text-anchor="middle" x="791.05" y="-51.9" font-family="Helvetica,sans-Serif" font-size="9.00">3136 → 512</text>
<text xml:space="preserve" text-anchor="middle" x="791.05" y="-41.1" font-family="Helvetica,sans-Serif" font-size="9.00">ReLU</text>
<text xml:space="preserve" text-anchor="middle" x="791.05" y="-30.3" font-family="Helvetica,sans-Serif" font-size="9.00">1,606,144 p</text>
</g>
<!-- fl&#45;&gt;d1 -->
<g id="edge8" class="edge">
<title>fl&#45;&gt;d1</title>
<path fill="none" stroke="#888888" stroke-width="0.8" d="M723.62,-49.2C732.41,-49.2 742.39,-49.2 751.9,-49.2"/>
<polygon fill="#888888" stroke="#888888" stroke-width="0.8" points="751.84,-51.3 757.84,-49.2 751.84,-47.1 751.84,-51.3"/>
</g>
<!-- d2 -->
<g id="node10" class="node">
<title>d2</title>
<path fill="#ffe8e8" stroke="#c04040" d="M900.82,-74.8C900.82,-74.8 870.82,-74.8 870.82,-74.8 864.82,-74.8 858.82,-68.8 858.82,-62.8 858.82,-62.8 858.82,-35.6 858.82,-35.6 858.82,-29.6 864.82,-23.6 870.82,-23.6 870.82,-23.6 900.82,-23.6 900.82,-23.6 906.82,-23.6 912.82,-29.6 912.82,-35.6 912.82,-35.6 912.82,-62.8 912.82,-62.8 912.82,-68.8 906.82,-74.8 900.82,-74.8"/>
<text xml:space="preserve" text-anchor="middle" x="885.82" y="-62.7" font-family="Helvetica,sans-Serif" font-size="9.00">Dense</text>
<text xml:space="preserve" text-anchor="middle" x="885.82" y="-51.9" font-family="Helvetica,sans-Serif" font-size="9.00">512 → 10</text>
<text xml:space="preserve" text-anchor="middle" x="885.82" y="-41.1" font-family="Helvetica,sans-Serif" font-size="9.00">(identity)</text>
<text xml:space="preserve" text-anchor="middle" x="885.82" y="-30.3" font-family="Helvetica,sans-Serif" font-size="9.00">5,130 p</text>
</g>
<!-- d1&#45;&gt;d2 -->
<g id="edge9" class="edge">
<title>d1&#45;&gt;d2</title>
<path fill="none" stroke="#888888" stroke-width="0.8" d="M823.2,-49.2C832.26,-49.2 842.18,-49.2 851.37,-49.2"/>
<polygon fill="#888888" stroke="#888888" stroke-width="0.8" points="851.34,-51.3 857.34,-49.2 851.34,-47.1 851.34,-51.3"/>
</g>
<!-- out -->
<g id="node11" class="node">
<title>out</title>
<ellipse fill="#e8ffe8" stroke="#40a060" cx="990.2" cy="-49.2" rx="41.38" ry="20.93"/>
<text xml:space="preserve" text-anchor="middle" x="990.2" y="-51.9" font-family="Helvetica,sans-Serif" font-size="9.00">Logits</text>
<text xml:space="preserve" text-anchor="middle" x="990.2" y="-41.1" font-family="Helvetica,sans-Serif" font-size="9.00">10 classes</text>
</g>
<!-- d2&#45;&gt;out -->
<g id="edge10" class="edge">
<title>d2&#45;&gt;out</title>
<path fill="none" stroke="#888888" stroke-width="0.8" d="M913.19,-49.2C921.87,-49.2 931.8,-49.2 941.56,-49.2"/>
<polygon fill="#888888" stroke="#888888" stroke-width="0.8" points="941.4,-51.3 947.4,-49.2 941.4,-47.1 941.4,-51.3"/>
</g>
</g>
</svg>
