<?xml version="1.0" encoding="UTF-8" standalone="no"?>
<!DOCTYPE svg PUBLIC "-//W3C//DTD SVG 1.1//EN"
 "http://www.w3.org/Graphics/SVG/1.1/DTD/svg11.dtd">
<!-- Generated by graphviz version 14.0.0 (20250921.2048)
 -->
<!-- Title: mnist_mlp Pages: 1 -->
<svg width="628pt" height="94pt"
 viewBox="0.00 0.00 628.00 94.00" xmlns="http://www.w3.org/2000/svg" xmlns:xlink="http://www.w3.org/1999/xlink">
<g id="graph0" class="graph" transform="scale(1 1) rotate(0) translate(4 89.83)">
<title>mnist_mlp</title>
<polygon fill="white" stroke="none" points="-4,4 -4,-89.83 623.53,-89.83 623.53,4 -4,4"/>
<text xml:space="preserve" text-anchor="middle" x="309.77" y="-7.9" font-family="Helvetica,sans-Serif" font-size="13.00">MNIST MLP — 669,706 params</text>
<!-- input -->
<g id="node1" class="node">
<title>input</title>
<ellipse fill="#e8f0ff" stroke="#4060a0" cx="52.2" cy="-54.71" rx="52.2" ry="31.11"/>
<text xml:space="preserve" text-anchor="middle" x="52.2" y="-63.71" font-family="Helvetica,sans-Serif" font-size="10.00">Input</text>
<text xml:space="preserve" text-anchor="middle" x="52.2" y="-51.71" font-family="Helvetica,sans-Serif" font-size="10.00">28×28 flatten</text>
<text xml:space="preserve" text-anchor="middle" x="52.2" y="-39.71" font-family="Helvetica,sans-Serif" font-size="10.00">→ 784</text>
</g>
<!-- d1 -->
<g id="node2" class="node">
<title>d1</title>
<path fill="#fff0e8" stroke="#c07040" d="M223.67,-82.71C223.67,-82.71 159.4,-82.71 159.4,-82.71 153.4,-82.71 147.4,-76.71 147.4,-70.71 147.4,-70.71 147.4,-38.71 147.4,-38.71 147.4,-32.71 153.4,-26.71 159.4,-26.71 159.4,-26.71 223.67,-26.71 223.67,-26.71 229.67,-26.71 235.67,-32.71 235.67,-38.71 235.67,-38.71 235.67,-70.71 235.67,-70.71 235.67,-76.71 229.67,-82.71 223.67,-82.71"/>
<text xml:space="preserve" text-anchor="middle" x="191.54" y="-69.71" font-family="Helvetica,sans-Serif" font-size="10.00">Dense</text>
<text xml:space="preserve" text-anchor="middle" x="191.54" y="-57.71" font-family="Helvetica,sans-Serif" font-size="10.00">784 → 512</text>
<text xml:space="preserve" text-anchor="middle" x="191.54" y="-45.71" font-family="Helvetica,sans-Serif" font-size="10.00">ReLU</text>
<text xml:space="preserve" text-anchor="middle" x="191.54" y="-33.71" font-family="Helvetica,sans-Serif" font-size="10.00">401,920 params</text>
</g>
<!-- input&#45;&gt;d1 -->
<g id="edge1" class="edge">
<title>input&#45;&gt;d1</title>
<path fill="none" stroke="#888888" stroke-width="0.8" d="M104.73,-54.71C116.33,-54.71 128.62,-54.71 140.17,-54.71"/>
<polygon fill="#888888" stroke="#888888" stroke-width="0.8" points="140.04,-56.81 146.04,-54.71 140.04,-52.61 140.04,-56.81"/>
</g>
<!-- d2 -->
<g id="node3" class="node">
<title>d2</title>
<path fill="#fff0e8" stroke="#c07040" d="M354.94,-82.71C354.94,-82.71 290.67,-82.71 290.67,-82.71 284.67,-82.71 278.67,-76.71 278.67,-70.71 278.67,-70.71 278.67,-38.71 278.67,-38.71 278.67,-32.71 284.67,-26.71 290.67,-26.71 290.67,-26.71 354.94,-26.71 354.94,-26.71 360.94,-26.71 366.94,-32.71 366.94,-38.71 366.94,-38.71 366.94,-70.71 366.94,-70.71 366.94,-76.71 360.94,-82.71 354.94,-82.71"/>
<text xml:space="preserve" text-anchor="middle" x="322.81" y="-69.71" font-family="Helvetica,sans-Serif" font-size="10.00">Dense</text>
<text xml:space="preserve" text-anchor="middle" x="322.81" y="-57.71" font-family="Helvetica,sans-Serif" font-size="10.00">512 → 512</text>
<text xml:space="preserve" text-anchor="middle" x="322.81" y="-45.71" font-family="Helvetica,sans-Serif" font-size="10.00">ReLU</text>
<text xml:space="preserve" text-anchor="middle" x="322.81" y="-33.71" font-family="Helvetica,sans-Serif" font-size="10.00">262,656 params</text>
</g>
<!-- d1&#45;&gt;d2 -->
<g id="edge2" class="edge">
<title>d1&#45;&gt;d2</title>
<path fill="none" stroke="#888888" stroke-width="0.8" d="M235.94,-54.71C247.24,-54.71 259.51,-54.71 271.15,-54.71"/>
<polygon fill="#888888" stroke="#888888" stroke-width="0.8" points="271.09,-56.81 277.09,-54.71 271.09,-52.61 271.09,-56.81"/>
</g>
<!-- d3 -->
<g id="node4" class="node">
<title>d3</title>
<path fill="#ffe8e8" stroke="#c04040" d="M475.09,-82.71C475.09,-82.71 421.94,-82.71 421.94,-82.71 415.94,-82.71 409.94,-76.71 409.94,-70.71 409.94,-70.71 409.94,-38.71 409.94,-38.71 409.94,-32.71 415.94,-26.71 421.94,-26.71 421.94,-26.71 475.09,-26.71 475.09,-26.71 481.09,-26.71 487.09,-32.71 487.09,-38.71 487.09,-38.71 487.09,-70.71 487.09,-70.71 487.09,-76.71 481.09,-82.71 475.09,-82.71"/>
<text xml:space="preserve" text-anchor="middle" x="448.52" y="-69.71" font-family="Helvetica,sans-Serif" font-size="10.00">Dense</text>
<text xml:space="preserve" text-anchor="middle" x="448.52" y="-57.71" font-family="Helvetica,sans-Serif" font-size="10.00">512 → 10</text>
<text xml:space="preserve" text-anchor="middle" x="448.52" y="-45.71" font-family="Helvetica,sans-Serif" font-size="10.00">(identity)</text>
<text xml:space="preserve" text-anchor="middle" x="448.52" y="-33.71" font-family="Helvetica,sans-Serif" font-size="10.00">5,130 params</text>
</g>
<!-- d2&#45;&gt;d3 -->
<g id="edge3" class="edge">
<title>d2&#45;&gt;d3</title>
<path fill="none" stroke="#888888" stroke-width="0.8" d="M367.42,-54.71C378.83,-54.71 391.14,-54.71 402.61,-54.71"/>
<polygon fill="#888888" stroke="#888888" stroke-width="0.8" points="402.42,-56.81 408.42,-54.71 402.42,-52.61 402.42,-56.81"/>
</g>
<!-- out -->
<g id="node5" class="node">
<title>out</title>
<ellipse fill="#e8ffe8" stroke="#40a060" cx="574.81" cy="-54.71" rx="44.72" ry="22.63"/>
<text xml:space="preserve" text-anchor="middle" x="574.81" y="-57.71" font-family="Helvetica,sans-Serif" font-size="10.00">Logits</text>
<text xml:space="preserve" text-anchor="middle" x="574.81" y="-45.71" font-family="Helvetica,sans-Serif" font-size="10.00">10 classes</text>
</g>
<!-- d3&#45;&gt;out -->
<g id="edge4" class="edge">
<title>d3&#45;&gt;out</title>
<path fill="none" stroke="#888888" stroke-width="0.8" d="M487.48,-54.71C498.7,-54.71 511.17,-54.71 523.06,-54.71"/>
<polygon fill="#888888" stroke="#888888" stroke-width="0.8" points="522.77,-56.81 528.77,-54.71 522.77,-52.61 522.77,-56.81"/>
</g>
</g>
</svg>
