<?xml version="1.0" encoding="UTF-8" standalone="no"?>
<!DOCTYPE svg PUBLIC "-//W3C//DTD SVG 1.1//EN"
 "http://www.w3.org/Graphics/SVG/1.1/DTD/svg11.dtd">
<!-- Generated by graphviz version 14.0.0 (20250921.2048)
 -->
<!-- Title: mnist_cnn Pages: 1 -->
<svg width="857pt" height="83pt"
 viewBox="0.00 0.00 857.00 83.00" xmlns="http://www.w3.org/2000/svg" xmlns:xlink="http://www.w3.org/1999/xlink">
<g id="graph0" class="graph" transform="scale(1 1) rotate(0) translate(4 78.8)">
<title>mnist_cnn</title>
<polygon fill="white" stroke="none" points="-4,4 -4,-78.8 852.59,-78.8 852.59,4 -4,4"/>
<text xml:space="preserve" text-anchor="middle" x="424.3" y="-7.9" font-family="Helvetica,sans-Serif" font-size="13.00">MNIST 2D CNN (S4TF&#45;style, no BN) — 3,489,130 params</text>
<!-- input -->
<g id="node1" class="node">
<title>input</title>
<ellipse fill="#e8f0ff" stroke="#4060a0" cx="36.08" cy="-49.2" rx="36.08" ry="20.93"/>
<text xml:space="preserve" text-anchor="middle" x="36.08" y="-51.9" font-family="Helvetica,sans-Serif" font-size="9.00">Input</text>
<text xml:space="preserve" text-anchor="middle" x="36.08" y="-41.1" font-family="Helvetica,sans-Serif" font-size="9.00">28×28×1</text>
</g>
<!-- c1 -->
<g id="node2" class="node">
<title>c1</title>
<path fill="#fff0e8" stroke="#c07040" d="M155.19,-74.8C155.19,-74.8 120.17,-74.8 120.17,-74.8 114.17,-74.8 108.17,-68.8 108.17,-62.8 108.17,-62.8 108.17,-35.6 108.17,-35.6 108.17,-29.6 114.17,-23.6 120.17,-23.6 120.17,-23.6 155.19,-23.6 155.19,-23.6 161.19,-23.6 167.19,-29.6 167.19,-35.6 167.19,-35.6 167.19,-62.8 167.19,-62.8 167.19,-68.8 161.19,-74.8 155.19,-74.8"/>
<text xml:space="preserve" text-anchor="middle" x="137.68" y="-62.7" font-family="Helvetica,sans-Serif" font-size="9.00">Conv2D</text>
<text xml:space="preserve" text-anchor="middle" x="137.68" y="-51.9" font-family="Helvetica,sans-Serif" font-size="9.00">1 → 32 ch</text>
<text xml:space="preserve" text-anchor="middle" x="137.68" y="-41.1" font-family="Helvetica,sans-Serif" font-size="9.00">3×3, ReLU</text>
<text xml:space="preserve" text-anchor="middle" x="137.68" y="-30.3" font-family="Helvetica,sans-Serif" font-size="9.00">320 p</text>
</g>
<!-- input&#45;&gt;c1 -->
<g id="edge1" class="edge">
<title>input&#45;&gt;c1</title>
<path fill="none" stroke="#888888" stroke-width="0.8" d="M72.48,-49.2C81.65,-49.2 91.54,-49.2 100.75,-49.2"/>
<polygon fill="#888888" stroke="#888888" stroke-width="0.8" points="100.74,-51.3 106.74,-49.2 100.74,-47.1 100.74,-51.3"/>
</g>
<!-- c2 -->
<g id="node3" class="node">
<title>c2</title>
<path fill="#fff0e8" stroke="#c07040" d="M251.72,-74.8C251.72,-74.8 215.19,-74.8 215.19,-74.8 209.19,-74.8 203.19,-68.8 203.19,-62.8 203.19,-62.8 203.19,-35.6 203.19,-35.6 203.19,-29.6 209.19,-23.6 215.19,-23.6 215.19,-23.6 251.72,-23.6 251.72,-23.6 257.72,-23.6 263.72,-29.6 263.72,-35.6 263.72,-35.6 263.72,-62.8 263.72,-62.8 263.72,-68.8 257.72,-74.8 251.72,-74.8"/>
<text xml:space="preserve" text-anchor="middle" x="233.45" y="-62.7" font-family="Helvetica,sans-Serif" font-size="9.00">Conv2D</text>
<text xml:space="preserve" text-anchor="middle" x="233.45" y="-51.9" font-family="Helvetica,sans-Serif" font-size="9.00">32 → 32 ch</text>
<text xml:space="preserve" text-anchor="middle" x="233.45" y="-41.1" font-family="Helvetica,sans-Serif" font-size="9.00">3×3, ReLU</text>
<text xml:space="preserve" text-anchor="middle" x="233.45" y="-30.3" font-family="Helvetica,sans-Serif" font-size="9.00">9,248 p</text>
</g>
<!-- c1&#45;&gt;c2 -->
<g id="edge2" class="edge">
<title>c1&#45;&gt;c2</title>
<path fill="none" stroke="#888888" stroke-width="0.8" d="M167.58,-49.2C176.5,-49.2 186.44,-49.2 195.81,-49.2"/>
<polygon fill="#888888" stroke="#888888" stroke-width="0.8" points="195.63,-51.3 201.63,-49.2 195.63,-47.1 195.63,-51.3"/>
</g>
<!-- p1 -->
<g id="node4" class="node">
<title>p1</title>
<path fill="#e8f0ff" stroke="#4060a0" d="M341.72,-69.4C341.72,-69.4 311.72,-69.4 311.72,-69.4 305.72,-69.4 299.72,-63.4 299.72,-57.4 299.72,-57.4 299.72,-41 299.72,-41 299.72,-35 305.72,-29 311.72,-29 311.72,-29 341.72,-29 341.72,-29 347.72,-29 353.72,-35 353.72,-41 353.72,-41 353.72,-57.4 353.72,-57.4 353.72,-63.4 347.72,-69.4 341.72,-69.4"/>
<text xml:space="preserve" text-anchor="middle" x="326.72" y="-57.3" font-family="Helvetica,sans-Serif" font-size="9.00">maxPool</text>
<text xml:space="preserve" text-anchor="middle" x="326.72" y="-46.5" font-family="Helvetica,sans-Serif" font-size="9.00">2×2</text>
<text xml:space="preserve" text-anchor="middle" x="326.72" y="-35.7" font-family="Helvetica,sans-Serif" font-size="9.00">28→14</text>
</g>
<!-- c2&#45;&gt;p1 -->
<g id="edge3" class="edge">
<title>c2&#45;&gt;p1</title>
<path fill="none" stroke="#888888" stroke-width="0.8" d="M264.08,-49.2C273.04,-49.2 282.93,-49.2 292.12,-49.2"/>
<polygon fill="#888888" stroke="#888888" stroke-width="0.8" points="292.1,-51.3 298.1,-49.2 292.1,-47.1 292.1,-51.3"/>
</g>
<!-- fl -->
<g id="node5" class="node">
<title>fl</title>
<path fill="#f0e8ff" stroke="#6040a0" d="M433.75,-69.4C433.75,-69.4 401.72,-69.4 401.72,-69.4 395.72,-69.4 389.72,-63.4 389.72,-57.4 389.72,-57.4 389.72,-41 389.72,-41 389.72,-35 395.72,-29 401.72,-29 401.72,-29 433.75,-29 433.75,-29 439.75,-29 445.75,-35 445.75,-41 445.75,-41 445.75,-57.4 445.75,-57.4 445.75,-63.4 439.75,-69.4 433.75,-69.4"/>
<text xml:space="preserve" text-anchor="middle" x="417.73" y="-57.3" font-family="Helvetica,sans-Serif" font-size="9.00">flatten</text>
<text xml:space="preserve" text-anchor="middle" x="417.73" y="-46.5" font-family="Helvetica,sans-Serif" font-size="9.00">14×14×32</text>
<text xml:space="preserve" text-anchor="middle" x="417.73" y="-35.7" font-family="Helvetica,sans-Serif" font-size="9.00">→ 6272</text>
</g>
<!-- p1&#45;&gt;fl -->
<g id="edge4" class="edge">
<title>p1&#45;&gt;fl</title>
<path fill="none" stroke="#888888" stroke-width="0.8" d="M353.94,-49.2C362.85,-49.2 372.95,-49.2 382.39,-49.2"/>
<polygon fill="#888888" stroke="#888888" stroke-width="0.8" points="382.25,-51.3 388.25,-49.2 382.25,-47.1 382.25,-51.3"/>
</g>
<!-- d1 -->
<g id="node6" class="node">
<title>d1</title>
<path fill="#ffe8e8" stroke="#c04040" d="M533.3,-74.8C533.3,-74.8 493.75,-74.8 493.75,-74.8 487.75,-74.8 481.75,-68.8 481.75,-62.8 481.75,-62.8 481.75,-35.6 481.75,-35.6 481.75,-29.6 487.75,-23.6 493.75,-23.6 493.75,-23.6 533.3,-23.6 533.3,-23.6 539.3,-23.6 545.3,-29.6 545.3,-35.6 545.3,-35.6 545.3,-62.8 545.3,-62.8 545.3,-68.8 539.3,-74.8 533.3,-74.8"/>
<text xml:space="preserve" text-anchor="middle" x="513.52" y="-62.7" font-family="Helvetica,sans-Serif" font-size="9.00">Dense</text>
<text xml:space="preserve" text-anchor="middle" x="513.52" y="-51.9" font-family="Helvetica,sans-Serif" font-size="9.00">6272 → 512</text>
<text xml:space="preserve" text-anchor="middle" x="513.52" y="-41.1" font-family="Helvetica,sans-Serif" font-size="9.00">ReLU</text>
<text xml:space="preserve" text-anchor="middle" x="513.52" y="-30.3" font-family="Helvetica,sans-Serif" font-size="9.00">3,211,776 p</text>
</g>
<!-- fl&#45;&gt;d1 -->
<g id="edge5" class="edge">
<title>fl&#45;&gt;d1</title>
<path fill="none" stroke="#888888" stroke-width="0.8" d="M446.11,-49.2C454.9,-49.2 464.81,-49.2 474.23,-49.2"/>
<polygon fill="#888888" stroke="#888888" stroke-width="0.8" points="474.11,-51.3 480.11,-49.2 474.11,-47.1 474.11,-51.3"/>
</g>
<!-- d2 -->
<g id="node7" class="node">
<title>d2</title>
<path fill="#ffe8e8" stroke="#c04040" d="M627.83,-74.8C627.83,-74.8 593.3,-74.8 593.3,-74.8 587.3,-74.8 581.3,-68.8 581.3,-62.8 581.3,-62.8 581.3,-35.6 581.3,-35.6 581.3,-29.6 587.3,-23.6 593.3,-23.6 593.3,-23.6 627.83,-23.6 627.83,-23.6 633.83,-23.6 639.83,-29.6 639.83,-35.6 639.83,-35.6 639.83,-62.8 639.83,-62.8 639.83,-68.8 633.83,-74.8 627.83,-74.8"/>
<text xml:space="preserve" text-anchor="middle" x="610.56" y="-62.7" font-family="Helvetica,sans-Serif" font-size="9.00">Dense</text>
<text xml:space="preserve" text-anchor="middle" x="610.56" y="-51.9" font-family="Helvetica,sans-Serif" font-size="9.00">512 → 512</text>
<text xml:space="preserve" text-anchor="middle" x="610.56" y="-41.1" font-family="Helvetica,sans-Serif" font-size="9.00">ReLU</text>
<text xml:space="preserve" text-anchor="middle" x="610.56" y="-30.3" font-family="Helvetica,sans-Serif" font-size="9.00">262,656 p</text>
</g>
<!-- d1&#45;&gt;d2 -->
<g id="edge6" class="edge">
<title>d1&#45;&gt;d2</title>
<path fill="none" stroke="#888888" stroke-width="0.8" d="M545.64,-49.2C554.7,-49.2 564.67,-49.2 573.98,-49.2"/>
<polygon fill="#888888" stroke="#888888" stroke-width="0.8" points="573.74,-51.3 579.74,-49.2 573.74,-47.1 573.74,-51.3"/>
</g>
<!-- d3 -->
<g id="node8" class="node">
<title>d3</title>
<path fill="#ffe8e8" stroke="#c04040" d="M717.83,-74.8C717.83,-74.8 687.83,-74.8 687.83,-74.8 681.83,-74.8 675.83,-68.8 675.83,-62.8 675.83,-62.8 675.83,-35.6 675.83,-35.6 675.83,-29.6 681.83,-23.6 687.83,-23.6 687.83,-23.6 717.83,-23.6 717.83,-23.6 723.83,-23.6 729.83,-29.6 729.83,-35.6 729.83,-35.6 729.83,-62.8 729.83,-62.8 729.83,-68.8 723.83,-74.8 717.83,-74.8"/>
<text xml:space="preserve" text-anchor="middle" x="702.83" y="-62.7" font-family="Helvetica,sans-Serif" font-size="9.00">Dense</text>
<text xml:space="preserve" text-anchor="middle" x="702.83" y="-51.9" font-family="Helvetica,sans-Serif" font-size="9.00">512 → 10</text>
<text xml:space="preserve" text-anchor="middle" x="702.83" y="-41.1" font-family="Helvetica,sans-Serif" font-size="9.00">(identity)</text>
<text xml:space="preserve" text-anchor="middle" x="702.83" y="-30.3" font-family="Helvetica,sans-Serif" font-size="9.00">5,130 p</text>
</g>
<!-- d2&#45;&gt;d3 -->
<g id="edge7" class="edge">
<title>d2&#45;&gt;d3</title>
<path fill="none" stroke="#888888" stroke-width="0.8" d="M640.12,-49.2C649.18,-49.2 659.27,-49.2 668.62,-49.2"/>
<polygon fill="#888888" stroke="#888888" stroke-width="0.8" points="668.39,-51.3 674.39,-49.2 668.39,-47.1 668.39,-51.3"/>
</g>
<!-- out -->
<g id="node9" class="node">
<title>out</title>
<ellipse fill="#e8ffe8" stroke="#40a060" cx="807.21" cy="-49.2" rx="41.38" ry="20.93"/>
<text xml:space="preserve" text-anchor="middle" x="807.21" y="-51.9" font-family="Helvetica,sans-Serif" font-size="9.00">Logits</text>
<text xml:space="preserve" text-anchor="middle" x="807.21" y="-41.1" font-family="Helvetica,sans-Serif" font-size="9.00">10 classes</text>
</g>
<!-- d3&#45;&gt;out -->
<g id="edge8" class="edge">
<title>d3&#45;&gt;out</title>
<path fill="none" stroke="#888888" stroke-width="0.8" d="M730.2,-49.2C738.87,-49.2 748.81,-49.2 758.57,-49.2"/>
<polygon fill="#888888" stroke="#888888" stroke-width="0.8" points="758.41,-51.3 764.41,-49.2 758.41,-47.1 758.41,-51.3"/>
</g>
</g>
</svg>
